<svg id="visual" viewBox="0 0 540 960" width="540" height="960" xmlns="http://www.w3.org/2000/svg" xmlns:xlink="http://www.w3.org/1999/xlink" version="1.1"><g stroke-width="1" stroke-linejoin="bevel"><path d="M257 470L423 389L276 323Z" fill="#d6d6d6" stroke="#d6d6d6"></path><path d="M257 470L406 517L423 389Z" fill="#ededed" stroke="#ededed"></path><path d="M379 206L271 271L276 323Z" fill="#d6d6d6" stroke="#d6d6d6"></path><path d="M90 331L107 465L257 470Z" fill="#d6d6d6" stroke="#d6d6d6"></path><path d="M423 389L379 206L276 323Z" fill="#dfdfdf" stroke="#dfdfdf"></path><path d="M406 517L540 460L423 389Z" fill="#fafafa" stroke="#fafafa"></path><path d="M423 389L540 325L379 206Z" fill="#ffffff" stroke="#ffffff"></path><path d="M260 645L453 585L406 517Z" fill="#fafafa" stroke="#fafafa"></path><path d="M406 517L453 585L540 460Z" fill="#f6f6f6" stroke="#f6f6f6"></path><path d="M540 460L540 325L423 389Z" fill="#dbdbdb" stroke="#dbdbdb"></path><path d="M90 331L257 470L276 323Z" fill="#f6f6f6" stroke="#f6f6f6"></path><path d="M257 470L260 645L406 517Z" fill="#f1f1f1" stroke="#f1f1f1"></path><path d="M83 264L90 331L271 271Z" fill="#dfdfdf" stroke="#dfdfdf"></path><path d="M271 271L90 331L276 323Z" fill="#dfdfdf" stroke="#dfdfdf"></path><path d="M98 584L260 645L257 470Z" fill="#fafafa" stroke="#fafafa"></path><path d="M540 197L420 169L379 206Z" fill="#f6f6f6" stroke="#f6f6f6"></path><path d="M225 135L83 264L271 271Z" fill="#d6d6d6" stroke="#d6d6d6"></path><path d="M225 135L271 271L379 206Z" fill="#d2d2d2" stroke="#d2d2d2"></path><path d="M540 697L540 595L453 585Z" fill="#fafafa" stroke="#fafafa"></path><path d="M453 585L540 595L540 460Z" fill="#ededed" stroke="#ededed"></path><path d="M420 169L225 135L379 206Z" fill="#d2d2d2" stroke="#d2d2d2"></path><path d="M0 508L98 584L107 465Z" fill="#f1f1f1" stroke="#f1f1f1"></path><path d="M107 465L98 584L257 470Z" fill="#e8e8e8" stroke="#e8e8e8"></path><path d="M0 374L107 465L90 331Z" fill="#dfdfdf" stroke="#dfdfdf"></path><path d="M540 325L540 197L379 206Z" fill="#d2d2d2" stroke="#d2d2d2"></path><path d="M83 264L0 374L90 331Z" fill="#dbdbdb" stroke="#dbdbdb"></path><path d="M170 770L282 739L260 645Z" fill="#d6d6d6" stroke="#d6d6d6"></path><path d="M260 645L403 766L453 585Z" fill="#ffffff" stroke="#ffffff"></path><path d="M0 374L0 508L107 465Z" fill="#ededed" stroke="#ededed"></path><path d="M98 584L170 770L260 645Z" fill="#e4e4e4" stroke="#e4e4e4"></path><path d="M226 0L169 94L225 135Z" fill="#ffffff" stroke="#ffffff"></path><path d="M225 135L169 94L83 264Z" fill="#e4e4e4" stroke="#e4e4e4"></path><path d="M83 264L0 233L0 374Z" fill="#f6f6f6" stroke="#f6f6f6"></path><path d="M413 0L225 135L420 169Z" fill="#f1f1f1" stroke="#f1f1f1"></path><path d="M403 766L540 697L453 585Z" fill="#d2d2d2" stroke="#d2d2d2"></path><path d="M282 739L403 766L260 645Z" fill="#f6f6f6" stroke="#f6f6f6"></path><path d="M0 119L0 233L83 264Z" fill="#dbdbdb" stroke="#dbdbdb"></path><path d="M540 197L540 81L420 169Z" fill="#f1f1f1" stroke="#f1f1f1"></path><path d="M282 739L380 793L403 766Z" fill="#d2d2d2" stroke="#d2d2d2"></path><path d="M403 766L540 797L540 697Z" fill="#e8e8e8" stroke="#e8e8e8"></path><path d="M0 508L0 622L98 584Z" fill="#f6f6f6" stroke="#f6f6f6"></path><path d="M282 739L290 808L380 793Z" fill="#f1f1f1" stroke="#f1f1f1"></path><path d="M0 758L170 770L98 584Z" fill="#f6f6f6" stroke="#f6f6f6"></path><path d="M170 770L290 808L282 739Z" fill="#dfdfdf" stroke="#dfdfdf"></path><path d="M540 81L413 0L420 169Z" fill="#f6f6f6" stroke="#f6f6f6"></path><path d="M413 0L226 0L225 135Z" fill="#e8e8e8" stroke="#e8e8e8"></path><path d="M169 94L0 119L83 264Z" fill="#f1f1f1" stroke="#f1f1f1"></path><path d="M84 0L0 119L169 94Z" fill="#e8e8e8" stroke="#e8e8e8"></path><path d="M441 960L540 797L380 793Z" fill="#fafafa" stroke="#fafafa"></path><path d="M380 793L540 797L403 766Z" fill="#d6d6d6" stroke="#d6d6d6"></path><path d="M540 81L540 0L413 0Z" fill="#dbdbdb" stroke="#dbdbdb"></path><path d="M226 0L84 0L169 94Z" fill="#dfdfdf" stroke="#dfdfdf"></path><path d="M170 770L165 852L290 808Z" fill="#e4e4e4" stroke="#e4e4e4"></path><path d="M290 808L441 960L380 793Z" fill="#ffffff" stroke="#ffffff"></path><path d="M0 836L165 852L170 770Z" fill="#e4e4e4" stroke="#e4e4e4"></path><path d="M0 622L0 758L98 584Z" fill="#d6d6d6" stroke="#d6d6d6"></path><path d="M84 0L0 0L0 119Z" fill="#d2d2d2" stroke="#d2d2d2"></path><path d="M0 758L0 836L170 770Z" fill="#e4e4e4" stroke="#e4e4e4"></path><path d="M159 960L219 960L165 852Z" fill="#ffffff" stroke="#ffffff"></path><path d="M165 852L219 960L290 808Z" fill="#ffffff" stroke="#ffffff"></path><path d="M219 960L441 960L290 808Z" fill="#f1f1f1" stroke="#f1f1f1"></path><path d="M0 960L159 960L165 852Z" fill="#dfdfdf" stroke="#dfdfdf"></path><path d="M441 960L540 960L540 797Z" fill="#e8e8e8" stroke="#e8e8e8"></path><path d="M0 836L0 960L165 852Z" fill="#fafafa" stroke="#fafafa"></path></g></svg>