<svg id="visual" viewBox="0 0 540 960" width="540" height="960" xmlns="http://www.w3.org/2000/svg" xmlns:xlink="http://www.w3.org/1999/xlink" version="1.1"><g stroke-width="1" stroke-linejoin="bevel"><path d="M284 515.3L199 462.7L226 518.3Z" fill="#e6e6e6" stroke="#e6e6e6"></path><path d="M284 515.3L344 390.7L199 462.7Z" fill="#f7f7f7" stroke="#f7f7f7"></path><path d="M199 462.7L147 549.3L226 518.3Z" fill="#f2f2f2" stroke="#f2f2f2"></path><path d="M226 518.3L286 611L284 515.3Z" fill="#ffffff" stroke="#ffffff"></path><path d="M168 620L286 611L226 518.3Z" fill="#fcfcfc" stroke="#fcfcfc"></path><path d="M284 515.3L397 398.7L344 390.7Z" fill="#e6e6e6" stroke="#e6e6e6"></path><path d="M344 390.7L202 331L199 462.7Z" fill="#e8e8e8" stroke="#e8e8e8"></path><path d="M199 462.7L71 448.7L147 549.3Z" fill="#fcfcfc" stroke="#fcfcfc"></path><path d="M202 331L148 364L199 462.7Z" fill="#ebebeb" stroke="#ebebeb"></path><path d="M452 572.3L397 398.7L284 515.3Z" fill="#e8e8e8" stroke="#e8e8e8"></path><path d="M344 390.7L278 292L202 331Z" fill="#f5f5f5" stroke="#f5f5f5"></path><path d="M147 549.3L168 620L226 518.3Z" fill="#ededed" stroke="#ededed"></path><path d="M412 324L278 292L344 390.7Z" fill="#fafafa" stroke="#fafafa"></path><path d="M148 364L71 448.7L199 462.7Z" fill="#ffffff" stroke="#ffffff"></path><path d="M147 549.3L142 635L168 620Z" fill="#fafafa" stroke="#fafafa"></path><path d="M0 597L142 635L147 549.3Z" fill="#e6e6e6" stroke="#e6e6e6"></path><path d="M168 620L230 754.7L286 611Z" fill="#f5f5f5" stroke="#f5f5f5"></path><path d="M397 398.7L412 324L344 390.7Z" fill="#e6e6e6" stroke="#e6e6e6"></path><path d="M286 611L452 572.3L284 515.3Z" fill="#ededed" stroke="#ededed"></path><path d="M397 398.7L540 464.7L412 324Z" fill="#f7f7f7" stroke="#f7f7f7"></path><path d="M286 611L451 613L452 572.3Z" fill="#ebebeb" stroke="#ebebeb"></path><path d="M340 730.7L451 613L286 611Z" fill="#ededed" stroke="#ededed"></path><path d="M386 253.3L313 231.3L278 292Z" fill="#ededed" stroke="#ededed"></path><path d="M278 292L254 190.3L202 331Z" fill="#ededed" stroke="#ededed"></path><path d="M202 331L72 242.3L148 364Z" fill="#e8e8e8" stroke="#e8e8e8"></path><path d="M0 347L0 467.7L71 448.7Z" fill="#f7f7f7" stroke="#f7f7f7"></path><path d="M71 448.7L0 550.3L147 549.3Z" fill="#fafafa" stroke="#fafafa"></path><path d="M0 347L71 448.7L148 364Z" fill="#f5f5f5" stroke="#f5f5f5"></path><path d="M412 324L386 253.3L278 292Z" fill="#fafafa" stroke="#fafafa"></path><path d="M0 467.7L0 550.3L71 448.7Z" fill="#e6e6e6" stroke="#e6e6e6"></path><path d="M0 597L133 712.7L142 635Z" fill="#f2f2f2" stroke="#f2f2f2"></path><path d="M142 635L133 712.7L168 620Z" fill="#fafafa" stroke="#fafafa"></path><path d="M230 754.7L340 730.7L286 611Z" fill="#ebebeb" stroke="#ebebeb"></path><path d="M231 143.7L254 190.3L297 96.7Z" fill="#fafafa" stroke="#fafafa"></path><path d="M313 231.3L254 190.3L278 292Z" fill="#e8e8e8" stroke="#e8e8e8"></path><path d="M72 242.3L0 347L148 364Z" fill="#f0f0f0" stroke="#f0f0f0"></path><path d="M0 550.3L0 597L147 549.3Z" fill="#ededed" stroke="#ededed"></path><path d="M133 712.7L230 754.7L168 620Z" fill="#e6e6e6" stroke="#e6e6e6"></path><path d="M452 572.3L540 464.7L397 398.7Z" fill="#e8e8e8" stroke="#e8e8e8"></path><path d="M412 324L540 244.3L386 253.3Z" fill="#f2f2f2" stroke="#f2f2f2"></path><path d="M540 562.3L540 464.7L452 572.3Z" fill="#e8e8e8" stroke="#e8e8e8"></path><path d="M254 190.3L72 242.3L202 331Z" fill="#f2f2f2" stroke="#f2f2f2"></path><path d="M540 630L540 562.3L451 613Z" fill="#f2f2f2" stroke="#f2f2f2"></path><path d="M451 613L540 562.3L452 572.3Z" fill="#f2f2f2" stroke="#f2f2f2"></path><path d="M325 812.3L428 730.7L340 730.7Z" fill="#f2f2f2" stroke="#f2f2f2"></path><path d="M340 730.7L428 730.7L451 613Z" fill="#ededed" stroke="#ededed"></path><path d="M254 190.3L231 143.7L72 242.3Z" fill="#f0f0f0" stroke="#f0f0f0"></path><path d="M297 96.7L254 190.3L313 231.3Z" fill="#f5f5f5" stroke="#f5f5f5"></path><path d="M428 730.7L540 630L451 613Z" fill="#e6e6e6" stroke="#e6e6e6"></path><path d="M230 754.7L260 808.3L340 730.7Z" fill="#e8e8e8" stroke="#e8e8e8"></path><path d="M67 860.3L260 808.3L230 754.7Z" fill="#ffffff" stroke="#ffffff"></path><path d="M540 464.7L540 287L412 324Z" fill="#fafafa" stroke="#fafafa"></path><path d="M393 95.7L297 96.7L313 231.3Z" fill="#e8e8e8" stroke="#e8e8e8"></path><path d="M260 808.3L325 812.3L340 730.7Z" fill="#f0f0f0" stroke="#f0f0f0"></path><path d="M72 242.3L0 219.3L0 347Z" fill="#ffffff" stroke="#ffffff"></path><path d="M0 113.7L0 219.3L72 242.3Z" fill="#ededed" stroke="#ededed"></path><path d="M540 287L540 244.3L412 324Z" fill="#ededed" stroke="#ededed"></path><path d="M393 95.7L313 231.3L386 253.3Z" fill="#fcfcfc" stroke="#fcfcfc"></path><path d="M231 143.7L112 74.7L72 242.3Z" fill="#ebebeb" stroke="#ebebeb"></path><path d="M0 597L0 771.7L133 712.7Z" fill="#f2f2f2" stroke="#f2f2f2"></path><path d="M133 712.7L67 860.3L230 754.7Z" fill="#f7f7f7" stroke="#f7f7f7"></path><path d="M540 244.3L393 95.7L386 253.3Z" fill="#ebebeb" stroke="#ebebeb"></path><path d="M428 730.7L540 756.7L540 630Z" fill="#f5f5f5" stroke="#f5f5f5"></path><path d="M425 873.3L540 756.7L428 730.7Z" fill="#fcfcfc" stroke="#fcfcfc"></path><path d="M232 0L231 143.7L297 96.7Z" fill="#ffffff" stroke="#ffffff"></path><path d="M232 0L112 74.7L231 143.7Z" fill="#ebebeb" stroke="#ebebeb"></path><path d="M0 771.7L67 860.3L133 712.7Z" fill="#e6e6e6" stroke="#e6e6e6"></path><path d="M318 960L425 873.3L325 812.3Z" fill="#ededed" stroke="#ededed"></path><path d="M112 74.7L0 113.7L72 242.3Z" fill="#e8e8e8" stroke="#e8e8e8"></path><path d="M318 960L325 812.3L260 808.3Z" fill="#f5f5f5" stroke="#f5f5f5"></path><path d="M325 812.3L425 873.3L428 730.7Z" fill="#e8e8e8" stroke="#e8e8e8"></path><path d="M0 771.7L0 834.3L67 860.3Z" fill="#f2f2f2" stroke="#f2f2f2"></path><path d="M319 0L232 0L297 96.7Z" fill="#e8e8e8" stroke="#e8e8e8"></path><path d="M112 74.7L0 0L0 113.7Z" fill="#f0f0f0" stroke="#f0f0f0"></path><path d="M439 0L319 0L393 95.7Z" fill="#e8e8e8" stroke="#e8e8e8"></path><path d="M393 95.7L319 0L297 96.7Z" fill="#fcfcfc" stroke="#fcfcfc"></path><path d="M232 0L132 0L112 74.7Z" fill="#ffffff" stroke="#ffffff"></path><path d="M540 244.3L540 77.7L393 95.7Z" fill="#e6e6e6" stroke="#e6e6e6"></path><path d="M144 960L189 960L67 860.3Z" fill="#ebebeb" stroke="#ebebeb"></path><path d="M67 860.3L189 960L260 808.3Z" fill="#e6e6e6" stroke="#e6e6e6"></path><path d="M189 960L318 960L260 808.3Z" fill="#fcfcfc" stroke="#fcfcfc"></path><path d="M0 960L144 960L67 860.3Z" fill="#fafafa" stroke="#fafafa"></path><path d="M540 77.7L439 0L393 95.7Z" fill="#e6e6e6" stroke="#e6e6e6"></path><path d="M430 960L540 897.3L425 873.3Z" fill="#ffffff" stroke="#ffffff"></path><path d="M425 873.3L540 897.3L540 756.7Z" fill="#f0f0f0" stroke="#f0f0f0"></path><path d="M318 960L430 960L425 873.3Z" fill="#f5f5f5" stroke="#f5f5f5"></path><path d="M132 0L0 0L112 74.7Z" fill="#ebebeb" stroke="#ebebeb"></path><path d="M0 834.3L0 960L67 860.3Z" fill="#f2f2f2" stroke="#f2f2f2"></path><path d="M540 77.7L540 0L439 0Z" fill="#ffffff" stroke="#ffffff"></path><path d="M430 960L540 960L540 897.3Z" fill="#ededed" stroke="#ededed"></path></g></svg>