<svg id="visual" viewBox="0 0 960 540" width="960" height="540" xmlns="http://www.w3.org/2000/svg" xmlns:xlink="http://www.w3.org/1999/xlink" version="1.1"><g stroke-width="1" stroke-linejoin="bevel"><path d="M440 267L428 156L186 152Z" fill="#eeeeee" stroke="#eeeeee"></path><path d="M186 152L171 375L440 267Z" fill="#d2d2d2" stroke="#d2d2d2"></path><path d="M428 156L226 0L186 152Z" fill="#e9e9e9" stroke="#e9e9e9"></path><path d="M428 156L401 0L226 0Z" fill="#eeeeee" stroke="#eeeeee"></path><path d="M0 0L0 175L186 152Z" fill="#ffffff" stroke="#ffffff"></path><path d="M186 152L0 304L171 375Z" fill="#d2d2d2" stroke="#d2d2d2"></path><path d="M171 375L330 540L440 267Z" fill="#c7c7c7" stroke="#c7c7c7"></path><path d="M0 175L0 304L186 152Z" fill="#ffffff" stroke="#ffffff"></path><path d="M171 375L0 540L330 540Z" fill="#d8d8d8" stroke="#d8d8d8"></path><path d="M330 540L518 540L440 267Z" fill="#e9e9e9" stroke="#e9e9e9"></path><path d="M440 267L669 0L428 156Z" fill="#eeeeee" stroke="#eeeeee"></path><path d="M428 156L669 0L401 0Z" fill="#dddddd" stroke="#dddddd"></path><path d="M226 0L0 0L186 152Z" fill="#e9e9e9" stroke="#e9e9e9"></path><path d="M795 94L669 0L440 267Z" fill="#f9f9f9" stroke="#f9f9f9"></path><path d="M0 304L0 540L171 375Z" fill="#d8d8d8" stroke="#d8d8d8"></path><path d="M518 540L760 384L440 267Z" fill="#d8d8d8" stroke="#d8d8d8"></path><path d="M518 540L680 540L760 384Z" fill="#c7c7c7" stroke="#c7c7c7"></path><path d="M760 384L795 94L440 267Z" fill="#ffffff" stroke="#ffffff"></path><path d="M960 446L960 158L760 384Z" fill="#eeeeee" stroke="#eeeeee"></path><path d="M760 384L960 158L795 94Z" fill="#f4f4f4" stroke="#f4f4f4"></path><path d="M795 94L960 0L669 0Z" fill="#cdcdcd" stroke="#cdcdcd"></path><path d="M960 540L960 446L760 384Z" fill="#f4f4f4" stroke="#f4f4f4"></path><path d="M960 158L960 0L795 94Z" fill="#dddddd" stroke="#dddddd"></path><path d="M680 540L960 540L760 384Z" fill="#ffffff" stroke="#ffffff"></path></g></svg>