<svg id="visual" viewBox="0 0 540 960" width="540" height="960" xmlns="http://www.w3.org/2000/svg" xmlns:xlink="http://www.w3.org/1999/xlink" version="1.1"><g stroke-width="1" stroke-linejoin="bevel"><path d="M210 496.3L260 411.7L149 492.3Z" fill="#f0f0f0" stroke="#f0f0f0"></path><path d="M260 411.7L136 337L149 492.3Z" fill="#f2f2f2" stroke="#f2f2f2"></path><path d="M136 337L79 395.7L149 492.3Z" fill="#ebebeb" stroke="#ebebeb"></path><path d="M260 411.7L243 317L136 337Z" fill="#e8e8e8" stroke="#e8e8e8"></path><path d="M210 496.3L311 413.7L260 411.7Z" fill="#ffffff" stroke="#ffffff"></path><path d="M260 411.7L311 413.7L243 317Z" fill="#e8e8e8" stroke="#e8e8e8"></path><path d="M295 228.3L223 256.3L243 317Z" fill="#f0f0f0" stroke="#f0f0f0"></path><path d="M243 317L223 256.3L136 337Z" fill="#ebebeb" stroke="#ebebeb"></path><path d="M0 328L0 444.7L79 395.7Z" fill="#e6e6e6" stroke="#e6e6e6"></path><path d="M79 395.7L0 502.3L149 492.3Z" fill="#ebebeb" stroke="#ebebeb"></path><path d="M0 328L79 395.7L136 337Z" fill="#f7f7f7" stroke="#f7f7f7"></path><path d="M0 444.7L0 502.3L79 395.7Z" fill="#f5f5f5" stroke="#f5f5f5"></path><path d="M254 624L330 561.3L210 496.3Z" fill="#f2f2f2" stroke="#f2f2f2"></path><path d="M254 624L210 496.3L149 492.3Z" fill="#ebebeb" stroke="#ebebeb"></path><path d="M210 496.3L330 561.3L311 413.7Z" fill="#f0f0f0" stroke="#f0f0f0"></path><path d="M91 192.3L0 328L136 337Z" fill="#fcfcfc" stroke="#fcfcfc"></path><path d="M0 502.3L71 601L149 492.3Z" fill="#f5f5f5" stroke="#f5f5f5"></path><path d="M71 601L254 624L149 492.3Z" fill="#f0f0f0" stroke="#f0f0f0"></path><path d="M451 354L357 294L311 413.7Z" fill="#fcfcfc" stroke="#fcfcfc"></path><path d="M311 413.7L357 294L243 317Z" fill="#f5f5f5" stroke="#f5f5f5"></path><path d="M357 294L295 228.3L243 317Z" fill="#e8e8e8" stroke="#e8e8e8"></path><path d="M223 256.3L91 192.3L136 337Z" fill="#ededed" stroke="#ededed"></path><path d="M146 145.7L91 192.3L223 256.3Z" fill="#ebebeb" stroke="#ebebeb"></path><path d="M364 643L440 494.3L330 561.3Z" fill="#ededed" stroke="#ededed"></path><path d="M330 561.3L440 494.3L311 413.7Z" fill="#ffffff" stroke="#ffffff"></path><path d="M461 412.7L451 354L311 413.7Z" fill="#e8e8e8" stroke="#e8e8e8"></path><path d="M357 294L406 128.7L295 228.3Z" fill="#ebebeb" stroke="#ebebeb"></path><path d="M440 494.3L461 412.7L311 413.7Z" fill="#f5f5f5" stroke="#f5f5f5"></path><path d="M91 192.3L0 212.3L0 328Z" fill="#fafafa" stroke="#fafafa"></path><path d="M189 97.7L146 145.7L223 256.3Z" fill="#f2f2f2" stroke="#f2f2f2"></path><path d="M91 192.3L0 139.7L0 212.3Z" fill="#f2f2f2" stroke="#f2f2f2"></path><path d="M316 789.7L364 643L254 624Z" fill="#e6e6e6" stroke="#e6e6e6"></path><path d="M254 624L364 643L330 561.3Z" fill="#fcfcfc" stroke="#fcfcfc"></path><path d="M0 502.3L0 655L71 601Z" fill="#f7f7f7" stroke="#f7f7f7"></path><path d="M71 601L148 745.7L254 624Z" fill="#fcfcfc" stroke="#fcfcfc"></path><path d="M0 655L148 745.7L71 601Z" fill="#f7f7f7" stroke="#f7f7f7"></path><path d="M323 59.7L189 97.7L295 228.3Z" fill="#f7f7f7" stroke="#f7f7f7"></path><path d="M295 228.3L189 97.7L223 256.3Z" fill="#ededed" stroke="#ededed"></path><path d="M146 145.7L0 139.7L91 192.3Z" fill="#f2f2f2" stroke="#f2f2f2"></path><path d="M70 0L0 139.7L146 145.7Z" fill="#ffffff" stroke="#ffffff"></path><path d="M364 643L450 653L440 494.3Z" fill="#f2f2f2" stroke="#f2f2f2"></path><path d="M440 494.3L540 467.7L461 412.7Z" fill="#e8e8e8" stroke="#e8e8e8"></path><path d="M413 745.7L450 653L364 643Z" fill="#f2f2f2" stroke="#f2f2f2"></path><path d="M540 538.3L540 467.7L440 494.3Z" fill="#f7f7f7" stroke="#f7f7f7"></path><path d="M461 412.7L540 286L451 354Z" fill="#ededed" stroke="#ededed"></path><path d="M95 840.3L199 789.7L148 745.7Z" fill="#f7f7f7" stroke="#f7f7f7"></path><path d="M148 745.7L199 789.7L254 624Z" fill="#f7f7f7" stroke="#f7f7f7"></path><path d="M540 286L475 196.3L451 354Z" fill="#f2f2f2" stroke="#f2f2f2"></path><path d="M451 354L475 196.3L357 294Z" fill="#f7f7f7" stroke="#f7f7f7"></path><path d="M475 196.3L406 128.7L357 294Z" fill="#fafafa" stroke="#fafafa"></path><path d="M450 653L540 538.3L440 494.3Z" fill="#ededed" stroke="#ededed"></path><path d="M540 467.7L540 286L461 412.7Z" fill="#f7f7f7" stroke="#f7f7f7"></path><path d="M199 789.7L316 789.7L254 624Z" fill="#ebebeb" stroke="#ebebeb"></path><path d="M406 128.7L323 59.7L295 228.3Z" fill="#ffffff" stroke="#ffffff"></path><path d="M189 97.7L70 0L146 145.7Z" fill="#fafafa" stroke="#fafafa"></path><path d="M316 789.7L413 745.7L364 643Z" fill="#e8e8e8" stroke="#e8e8e8"></path><path d="M450 653L540 675L540 538.3Z" fill="#fafafa" stroke="#fafafa"></path><path d="M259 843.3L315 808.3L316 789.7Z" fill="#ededed" stroke="#ededed"></path><path d="M316 789.7L315 808.3L413 745.7Z" fill="#f7f7f7" stroke="#f7f7f7"></path><path d="M0 655L0 786.7L148 745.7Z" fill="#f2f2f2" stroke="#f2f2f2"></path><path d="M199 789.7L259 843.3L316 789.7Z" fill="#f2f2f2" stroke="#f2f2f2"></path><path d="M540 286L540 214.3L475 196.3Z" fill="#f7f7f7" stroke="#f7f7f7"></path><path d="M540 79.7L407 0L406 128.7Z" fill="#ededed" stroke="#ededed"></path><path d="M407 0L299 0L323 59.7Z" fill="#fcfcfc" stroke="#fcfcfc"></path><path d="M0 786.7L95 840.3L148 745.7Z" fill="#fafafa" stroke="#fafafa"></path><path d="M174 960L259 843.3L199 789.7Z" fill="#fafafa" stroke="#fafafa"></path><path d="M0 786.7L0 808.3L95 840.3Z" fill="#f7f7f7" stroke="#f7f7f7"></path><path d="M299 0L245 0L323 59.7Z" fill="#e8e8e8" stroke="#e8e8e8"></path><path d="M323 59.7L245 0L189 97.7Z" fill="#e6e6e6" stroke="#e6e6e6"></path><path d="M540 734.7L413 745.7L540 891.3Z" fill="#f0f0f0" stroke="#f0f0f0"></path><path d="M540 734.7L450 653L413 745.7Z" fill="#ebebeb" stroke="#ebebeb"></path><path d="M540 734.7L540 675L450 653Z" fill="#f7f7f7" stroke="#f7f7f7"></path><path d="M245 0L70 0L189 97.7Z" fill="#ededed" stroke="#ededed"></path><path d="M407 0L323 59.7L406 128.7Z" fill="#fafafa" stroke="#fafafa"></path><path d="M70 0L0 0L0 139.7Z" fill="#ededed" stroke="#ededed"></path><path d="M393 874.3L413 745.7L315 808.3Z" fill="#f0f0f0" stroke="#f0f0f0"></path><path d="M540 79.7L406 128.7L475 196.3Z" fill="#fcfcfc" stroke="#fcfcfc"></path><path d="M540 214.3L540 79.7L475 196.3Z" fill="#f0f0f0" stroke="#f0f0f0"></path><path d="M293 960L393 874.3L259 843.3Z" fill="#e8e8e8" stroke="#e8e8e8"></path><path d="M259 843.3L393 874.3L315 808.3Z" fill="#f7f7f7" stroke="#f7f7f7"></path><path d="M103 960L174 960L95 840.3Z" fill="#fcfcfc" stroke="#fcfcfc"></path><path d="M95 840.3L174 960L199 789.7Z" fill="#ffffff" stroke="#ffffff"></path><path d="M0 960L103 960L95 840.3Z" fill="#e8e8e8" stroke="#e8e8e8"></path><path d="M174 960L293 960L259 843.3Z" fill="#f2f2f2" stroke="#f2f2f2"></path><path d="M540 79.7L540 0L407 0Z" fill="#fafafa" stroke="#fafafa"></path><path d="M0 808.3L0 960L95 840.3Z" fill="#f7f7f7" stroke="#f7f7f7"></path><path d="M453 960L540 891.3L393 874.3Z" fill="#ffffff" stroke="#ffffff"></path><path d="M393 874.3L540 891.3L413 745.7Z" fill="#fcfcfc" stroke="#fcfcfc"></path><path d="M293 960L453 960L393 874.3Z" fill="#f5f5f5" stroke="#f5f5f5"></path><path d="M453 960L540 960L540 891.3Z" fill="#fcfcfc" stroke="#fcfcfc"></path></g></svg>