<svg id="visual" viewBox="0 0 540 960" width="540" height="960" xmlns="http://www.w3.org/2000/svg" xmlns:xlink="http://www.w3.org/1999/xlink" version="1.1"><g stroke-width="1" stroke-linejoin="bevel"><path d="M270 486L188 411L150 606Z" fill="#e3e3e3" stroke="#e3e3e3"></path><path d="M150 606L276 650L270 486Z" fill="#eeeeee" stroke="#eeeeee"></path><path d="M188 411L0 432L150 606Z" fill="#f4f4f4" stroke="#f4f4f4"></path><path d="M0 432L0 596L150 606Z" fill="#c7c7c7" stroke="#c7c7c7"></path><path d="M150 606L255 822L276 650Z" fill="#d2d2d2" stroke="#d2d2d2"></path><path d="M188 411L0 343L0 432Z" fill="#e9e9e9" stroke="#e9e9e9"></path><path d="M540 566L430 419L270 486Z" fill="#c7c7c7" stroke="#c7c7c7"></path><path d="M270 486L430 419L188 411Z" fill="#dddddd" stroke="#dddddd"></path><path d="M188 411L0 238L0 343Z" fill="#f9f9f9" stroke="#f9f9f9"></path><path d="M264 112L0 238L188 411Z" fill="#f9f9f9" stroke="#f9f9f9"></path><path d="M0 845L255 822L150 606Z" fill="#e9e9e9" stroke="#e9e9e9"></path><path d="M276 650L540 566L270 486Z" fill="#e3e3e3" stroke="#e3e3e3"></path><path d="M430 419L382 235L188 411Z" fill="#ffffff" stroke="#ffffff"></path><path d="M540 634L540 566L276 650Z" fill="#e9e9e9" stroke="#e9e9e9"></path><path d="M430 419L540 375L382 235Z" fill="#e9e9e9" stroke="#e9e9e9"></path><path d="M0 596L0 845L150 606Z" fill="#ffffff" stroke="#ffffff"></path><path d="M540 783L540 634L276 650Z" fill="#eeeeee" stroke="#eeeeee"></path><path d="M540 566L540 375L430 419Z" fill="#e9e9e9" stroke="#e9e9e9"></path><path d="M540 235L383 171L382 235Z" fill="#dddddd" stroke="#dddddd"></path><path d="M382 235L264 112L188 411Z" fill="#cdcdcd" stroke="#cdcdcd"></path><path d="M383 171L264 112L382 235Z" fill="#c7c7c7" stroke="#c7c7c7"></path><path d="M370 960L415 870L255 822Z" fill="#f4f4f4" stroke="#f4f4f4"></path><path d="M255 822L415 870L276 650Z" fill="#ffffff" stroke="#ffffff"></path><path d="M0 845L103 960L255 822Z" fill="#eeeeee" stroke="#eeeeee"></path><path d="M415 870L540 783L276 650Z" fill="#cdcdcd" stroke="#cdcdcd"></path><path d="M540 375L540 235L382 235Z" fill="#d8d8d8" stroke="#d8d8d8"></path><path d="M308 0L196 0L264 112Z" fill="#eeeeee" stroke="#eeeeee"></path><path d="M0 845L0 960L103 960Z" fill="#f4f4f4" stroke="#f4f4f4"></path><path d="M103 960L370 960L255 822Z" fill="#e9e9e9" stroke="#e9e9e9"></path><path d="M415 870L540 960L540 783Z" fill="#f4f4f4" stroke="#f4f4f4"></path><path d="M308 0L264 112L383 171Z" fill="#e9e9e9" stroke="#e9e9e9"></path><path d="M264 112L196 0L0 238Z" fill="#c7c7c7" stroke="#c7c7c7"></path><path d="M540 0L308 0L383 171Z" fill="#cdcdcd" stroke="#cdcdcd"></path><path d="M196 0L0 0L0 238Z" fill="#f4f4f4" stroke="#f4f4f4"></path><path d="M370 960L540 960L415 870Z" fill="#ffffff" stroke="#ffffff"></path><path d="M540 235L540 0L383 171Z" fill="#f4f4f4" stroke="#f4f4f4"></path></g></svg>